<svg width="30" height="30" viewBox="0 0 30 30" fill="none" xmlns="http://www.w3.org/2000/svg">
<path d="M29.6546 24.375C29.6546 24.9848 29.4243 25.503 28.9638 25.9299L25.6086 29.0396C25.148 29.4665 24.5888 29.6799 23.9309 29.6799C23.273 29.6799 22.7138 29.4665 22.2533 29.0396L15 22.3171L7.74671 29.0396C7.28618 29.4665 6.72697 29.6799 6.06908 29.6799C5.41118 29.6799 4.85197 29.4665 4.39145 29.0396L1.03618 25.9299C0.575657 25.503 0.345394 24.9848 0.345394 24.375C0.345394 23.7652 0.575657 23.247 1.03618 22.8201L8.28947 16.0976L1.03618 9.375C0.575657 8.94817 0.345394 8.42988 0.345394 7.82012C0.345394 7.21037 0.575657 6.69207 1.03618 6.26524L4.39145 3.15549C4.85197 2.72866 5.41118 2.51524 6.06908 2.51524C6.72697 2.51524 7.28618 2.72866 7.74671 3.15549L15 9.87805L22.2533 3.15549C22.7138 2.72866 23.273 2.51524 23.9309 2.51524C24.5888 2.51524 25.148 2.72866 25.6086 3.15549L28.9638 6.26524C29.4243 6.69207 29.6546 7.21037 29.6546 7.82012C29.6546 8.42988 29.4243 8.94817 28.9638 9.375L21.7105 16.0976L28.9638 22.8201C29.4243 23.247 29.6546 23.7652 29.6546 24.375Z" fill="#30C4BE"/>
</svg>
